<?xml version="1.0" encoding="utf-8"?>
<!-- Generator: Adobe Illustrator 22.0.1, SVG Export Plug-In . SVG Version: 6.00 Build 0)  -->
<svg version="1.1" id="Layer_1" xmlns="http://www.w3.org/2000/svg" xmlns:xlink="http://www.w3.org/1999/xlink" x="0px" y="0px"
	 viewBox="0 0 785.6 192.8" style="enable-background:new 0 0 785.6 192.8;" xml:space="preserve">
<style type="text/css">
	.st0{fill:#F2F2F2;}
</style>
<g>
	<g>
		<g>
			<path class="st0" d="M0,191.2V1.1h52.2v144.6h86.2v45.5H0z"/>
			<path class="st0" d="M236.8,146.5c6.1,0,11.2-1.3,15.5-4c4.3-2.7,7.8-6.2,10.4-10.6c2.7-4.4,4.6-9.4,5.9-15.1
				c1.2-5.7,1.9-11.7,1.9-17.9V1.1h52.2v97.8c0,13.2-1.7,25.6-5.1,37.1c-3.4,11.5-8.7,21.5-15.8,29.9c-7.1,8.4-16.1,15-26.9,19.8
				c-10.8,4.8-23.5,7.2-38.2,7.2c-15.2,0-28.2-2.5-39-7.6c-10.8-5.1-19.7-11.9-26.7-20.5c-7-8.6-12.1-18.5-15.3-29.9
				c-3.2-11.3-4.8-23.3-4.8-36V1.1h52.2v97.8c0,6.3,0.6,12.3,1.9,18.1c1.2,5.8,3.2,10.9,5.9,15.3c2.7,4.4,6.1,7.9,10.3,10.4
				C225.6,145.2,230.7,146.5,236.8,146.5z"/>
			<path class="st0" d="M342.3,94.5c0-11.6,2.2-23,6.6-34.3C353.2,49,359.6,38.9,368,30c8.4-8.9,18.6-16.2,30.5-21.7
				c12-5.5,25.6-8.3,41-8.3c18.4,0,34.3,3.8,47.8,11.4c13.5,7.6,23.5,17.6,30.1,30.1l-39.9,28.4c-1.8-4.6-4.2-8.5-7.1-11.5
				c-2.9-3-6.2-5.4-9.8-7.2c-3.6-1.8-7.3-3-11.1-3.8c-3.8-0.7-7.5-1.1-11.1-1.1c-7.5,0-14,1.5-19.4,4.4c-5.4,2.9-9.9,6.8-13.4,11.5
				c-3.5,4.7-6.1,10.1-7.8,16.1c-1.7,6-2.5,11.9-2.5,17.8c0,6.6,1,12.9,2.9,19c2,6.1,4.8,11.4,8.6,16.1c3.7,4.6,8.3,8.3,13.8,11.1
				c5.4,2.8,11.6,4.2,18.3,4.2c3.6,0,7.2-0.4,11-1.2c3.7-0.8,7.4-2.1,10.8-4c3.5-1.9,6.6-4.3,9.4-7.2c2.8-2.9,5-6.6,6.6-10.8
				l42.6,25.4c-2.9,7-7.2,13.2-13,18.7c-5.8,5.5-12.4,10.2-19.8,13.9c-7.4,3.8-15.4,6.6-23.8,8.6c-8.5,2-16.7,2.9-24.8,2.9
				c-14.1,0-27-2.8-38.7-8.4c-11.7-5.6-21.8-13.1-30.3-22.4c-8.5-9.3-15-19.8-19.7-31.6C344.6,118.7,342.3,106.7,342.3,94.5z"/>
			<path class="st0" d="M537.8,191.2V1.1H590v190.2H537.8z"/>
			<path class="st0" d="M672,1.1h47.7l65.9,190.2h-53L721,154h-50.6l-11.3,37.2h-53.3L672,1.1z M712.7,119.2l-16.9-58.9l-17.7,58.9
				H712.7z"/>
		</g>
	</g>
</g>
</svg>
