<?xml version="1.0" encoding="utf-8"?>
<!-- Generator: Adobe Illustrator 22.0.1, SVG Export Plug-In . SVG Version: 6.00 Build 0)  -->
<svg version="1.1" id="Layer_1" xmlns="http://www.w3.org/2000/svg" xmlns:xlink="http://www.w3.org/1999/xlink" x="0px" y="0px"
	 viewBox="0 0 785.6 192.8" style="enable-background:new 0 0 785.6 192.8;" xml:space="preserve">
<style type="text/css">
	.st0{fill:#ED1C24;}
</style>
<g>
	<g>
		<path class="st0" d="M11.7,95.7c0-2.3,0.4-4.6,1.2-6.7c0.8-2.1,2-3.9,3.4-5.5c1.5-1.6,3.2-2.8,5.3-3.7c2.1-0.9,4.3-1.3,6.8-1.3
			c3.2,0,5.9,0.7,8.3,2.1c2.3,1.4,4.1,3.4,5.3,5.8l-4.2,1.3c-0.9-1.7-2.3-3-3.9-4c-1.7-1-3.6-1.4-5.6-1.4c-1.7,0-3.3,0.3-4.8,1
			c-1.5,0.7-2.8,1.6-3.8,2.8c-1.1,1.2-1.9,2.6-2.6,4.2c-0.6,1.6-0.9,3.4-0.9,5.3c0,1.9,0.3,3.7,1,5.3c0.6,1.7,1.5,3.1,2.6,4.3
			c1.1,1.2,2.4,2.2,3.9,2.9c1.5,0.7,3,1.1,4.7,1.1c1.1,0,2.1-0.1,3.2-0.4c1-0.3,2-0.7,2.9-1.2c0.9-0.5,1.7-1.1,2.3-1.8
			c0.6-0.7,1.1-1.4,1.3-2.2l4.3,1.3c-0.5,1.2-1.2,2.3-2.1,3.3c-0.9,1-2,1.9-3.2,2.6c-1.2,0.7-2.6,1.3-4,1.7c-1.5,0.4-3,0.6-4.6,0.6
			c-2.4,0-4.7-0.5-6.7-1.4c-2.1-0.9-3.8-2.2-5.3-3.8c-1.5-1.6-2.7-3.4-3.5-5.5C12.1,100.4,11.7,98.1,11.7,95.7z"/>
		<path class="st0" d="M118.2,113.2c-2.4,0-4.7-0.5-6.7-1.4c-2-0.9-3.7-2.2-5.2-3.7c-1.5-1.6-2.6-3.4-3.4-5.5
			c-0.8-2.1-1.2-4.3-1.2-6.6c0-2.3,0.4-4.6,1.2-6.7c0.8-2.1,2-3.9,3.5-5.5c1.5-1.6,3.2-2.8,5.2-3.8c2-0.9,4.2-1.4,6.6-1.4
			c2.4,0,4.6,0.5,6.6,1.4c2,0.9,3.8,2.2,5.3,3.8c1.5,1.6,2.6,3.4,3.5,5.5c0.8,2.1,1.3,4.3,1.3,6.7c0,2.3-0.4,4.5-1.2,6.6
			c-0.8,2.1-2,3.9-3.4,5.5c-1.5,1.6-3.2,2.8-5.3,3.7C122.8,112.7,120.6,113.2,118.2,113.2z M106.1,96c0,1.9,0.3,3.6,1,5.2
			c0.6,1.6,1.5,3,2.6,4.2c1.1,1.2,2.4,2.2,3.8,2.9c1.5,0.7,3,1,4.7,1s3.2-0.4,4.7-1.1c1.5-0.7,2.8-1.7,3.9-2.9
			c1.1-1.2,2-2.6,2.6-4.3c0.6-1.6,1-3.4,1-5.3c0-1.8-0.3-3.6-1-5.2c-0.6-1.6-1.5-3.1-2.6-4.3c-1.1-1.2-2.4-2.2-3.9-2.9
			c-1.5-0.7-3-1.1-4.7-1.1s-3.2,0.4-4.7,1.1c-1.5,0.7-2.7,1.7-3.8,2.9c-1.1,1.2-2,2.7-2.6,4.3C106.4,92.4,106.1,94.1,106.1,96z"/>
		<path class="st0" d="M225.2,112.5h-4.4V93.9c0-4-0.6-6.9-1.8-8.7c-1.2-1.8-3-2.7-5.4-2.7c-1.3,0-2.6,0.2-3.8,0.7
			c-1.3,0.5-2.5,1.1-3.6,2c-1.1,0.9-2.1,1.9-2.9,3c-0.9,1.2-1.5,2.4-1.9,3.8v20.4h-4.4V79.1h4v7.6c1.4-2.4,3.3-4.4,5.9-5.9
			c2.5-1.5,5.3-2.2,8.3-2.2c1.8,0,3.4,0.3,4.7,1c1.3,0.7,2.3,1.6,3.1,2.9c0.8,1.2,1.3,2.8,1.7,4.5c0.3,1.8,0.5,3.8,0.5,6V112.5z"/>
		<path class="st0" d="M287.3,95.7c0-2.3,0.4-4.6,1.2-6.7c0.8-2.1,2-3.9,3.4-5.5c1.5-1.6,3.2-2.8,5.3-3.7c2.1-0.9,4.3-1.3,6.8-1.3
			c3.2,0,5.9,0.7,8.3,2.1c2.3,1.4,4.1,3.4,5.3,5.8l-4.2,1.3c-0.9-1.7-2.3-3-3.9-4c-1.7-1-3.6-1.4-5.6-1.4c-1.7,0-3.3,0.3-4.8,1
			c-1.5,0.7-2.8,1.6-3.8,2.8c-1.1,1.2-1.9,2.6-2.6,4.2c-0.6,1.6-0.9,3.4-0.9,5.3c0,1.9,0.3,3.7,1,5.3c0.6,1.7,1.5,3.1,2.6,4.3
			c1.1,1.2,2.4,2.2,3.9,2.9c1.5,0.7,3,1.1,4.7,1.1c1.1,0,2.1-0.1,3.2-0.4c1-0.3,2-0.7,2.9-1.2c0.9-0.5,1.7-1.1,2.3-1.8
			c0.6-0.7,1.1-1.4,1.3-2.2l4.3,1.3c-0.5,1.2-1.2,2.3-2.1,3.3c-0.9,1-2,1.9-3.2,2.6c-1.2,0.7-2.6,1.3-4,1.7c-1.5,0.4-3,0.6-4.6,0.6
			c-2.4,0-4.7-0.5-6.7-1.4c-2.1-0.9-3.8-2.2-5.3-3.8c-1.5-1.6-2.7-3.4-3.5-5.5C287.7,100.4,287.3,98.1,287.3,95.7z"/>
		<path class="st0" d="M408,112.5h-4.4V93.9c0-3.8-0.7-6.6-2-8.5c-1.3-1.9-3.2-2.8-5.7-2.8c-1.2,0-2.5,0.2-3.7,0.7
			c-1.2,0.5-2.4,1.2-3.4,2c-1.1,0.9-2,1.9-2.8,3c-0.8,1.2-1.4,2.4-1.8,3.8v20.4h-4.4V65.8h4.4v21c1.3-2.5,3.2-4.5,5.5-6
			c2.3-1.5,4.9-2.2,7.6-2.2c1.9,0,3.5,0.4,4.9,1.1c1.3,0.7,2.4,1.7,3.3,2.9c0.9,1.3,1.5,2.8,1.9,4.5c0.4,1.8,0.6,3.7,0.6,5.9V112.5z
			"/>
		<path class="st0" d="M486.8,113.2c-2.4,0-4.7-0.5-6.7-1.4c-2-0.9-3.8-2.2-5.3-3.8c-1.5-1.6-2.7-3.4-3.5-5.5
			c-0.8-2.1-1.3-4.3-1.3-6.7c0-2.3,0.4-4.6,1.3-6.6c0.8-2.1,2-3.9,3.5-5.4c1.5-1.6,3.2-2.8,5.3-3.7c2.1-0.9,4.3-1.4,6.7-1.4
			c2.4,0,4.7,0.5,6.7,1.4c2,0.9,3.8,2.2,5.2,3.7c1.5,1.6,2.6,3.4,3.4,5.4c0.8,2,1.2,4.2,1.2,6.5c0,0.3,0,0.7,0,1
			c0,0.3,0,0.6-0.1,0.7h-28.6c0.1,1.8,0.5,3.5,1.3,5c0.7,1.5,1.6,2.8,2.7,3.9c1.1,1.1,2.4,2,3.8,2.6s3,0.9,4.6,0.9
			c1.1,0,2.1-0.1,3.2-0.4c1.1-0.3,2.1-0.7,2.9-1.2c0.9-0.5,1.7-1.1,2.4-1.9c0.7-0.7,1.3-1.6,1.7-2.5l3.8,1c-0.5,1.2-1.2,2.4-2.2,3.4
			c-0.9,1-2,1.9-3.3,2.6c-1.2,0.7-2.6,1.3-4.1,1.7C490,113,488.4,113.2,486.8,113.2z M499.1,94.1c-0.1-1.8-0.5-3.4-1.2-4.9
			c-0.7-1.5-1.6-2.7-2.7-3.8c-1.1-1.1-2.3-1.9-3.8-2.5c-1.4-0.6-3-0.9-4.6-0.9c-1.6,0-3.2,0.3-4.6,0.9c-1.5,0.6-2.7,1.4-3.8,2.5
			c-1.1,1.1-2,2.3-2.6,3.8c-0.7,1.5-1.1,3.1-1.2,4.9H499.1z"/>
		<path class="st0" d="M565.3,65.8h4.4V105c0,1.2,0.3,2.2,1,2.9c0.7,0.7,1.6,1.1,2.9,1.1c0.5,0,1-0.1,1.7-0.2
			c0.6-0.1,1.2-0.3,1.8-0.5l0.8,3.5c-0.8,0.3-1.8,0.6-3,0.8c-1.2,0.2-2.2,0.3-3,0.3c-2,0-3.6-0.6-4.7-1.7c-1.2-1.1-1.7-2.7-1.7-4.8
			V65.8z"/>
		<path class="st0" d="M637.8,65.8h4.4V105c0,1.2,0.3,2.2,1,2.9c0.7,0.7,1.6,1.1,2.9,1.1c0.5,0,1-0.1,1.7-0.2s1.2-0.3,1.8-0.5
			l0.8,3.5c-0.8,0.3-1.8,0.6-3,0.8c-1.2,0.2-2.2,0.3-3,0.3c-2,0-3.6-0.6-4.7-1.7c-1.2-1.1-1.7-2.7-1.7-4.8V65.8z"/>
		<path class="st0" d="M724.4,113.2c-2.4,0-4.7-0.5-6.7-1.4c-2-0.9-3.7-2.2-5.2-3.7c-1.5-1.6-2.6-3.4-3.4-5.5
			c-0.8-2.1-1.2-4.3-1.2-6.6c0-2.3,0.4-4.6,1.3-6.7c0.8-2.1,2-3.9,3.5-5.5c1.5-1.6,3.2-2.8,5.2-3.8c2-0.9,4.2-1.4,6.6-1.4
			c2.4,0,4.6,0.5,6.6,1.4c2,0.9,3.8,2.2,5.3,3.8c1.5,1.6,2.6,3.4,3.5,5.5c0.8,2.1,1.2,4.3,1.2,6.7c0,2.3-0.4,4.5-1.2,6.6
			c-0.8,2.1-2,3.9-3.4,5.5c-1.5,1.6-3.2,2.8-5.3,3.7C729.1,112.7,726.8,113.2,724.4,113.2z M712.3,96c0,1.9,0.3,3.6,1,5.2
			c0.6,1.6,1.5,3,2.6,4.2c1.1,1.2,2.4,2.2,3.8,2.9c1.5,0.7,3,1,4.7,1c1.7,0,3.2-0.4,4.7-1.1c1.5-0.7,2.8-1.7,3.9-2.9
			c1.1-1.2,2-2.6,2.6-4.3c0.6-1.6,1-3.4,1-5.3c0-1.8-0.3-3.6-1-5.2c-0.6-1.6-1.5-3.1-2.6-4.3c-1.1-1.2-2.4-2.2-3.9-2.9
			c-1.5-0.7-3-1.1-4.7-1.1c-1.7,0-3.2,0.4-4.7,1.1c-1.5,0.7-2.7,1.7-3.8,2.9c-1.1,1.2-2,2.7-2.6,4.3C712.6,92.4,712.3,94.1,712.3,96
			z"/>
	</g>
</g>
</svg>
